
        <svg xmlns="http://www.w3.org/2000/svg" xmlns:xlink="http://www.w3.org/1999/xlink" version="1.1" width="3168.5393258426966" 
        height="1011.2833049435803" viewBox="0 0 3168.5393258426966 1011.2833049435803">
			
			<g transform="scale(8.426966292134832) translate(10, 10)">
				<defs id="SvgjsDefs11424"><linearGradient id="SvgjsLinearGradient11431"><stop id="SvgjsStop11432" stop-color="#ef4136" offset="0"></stop><stop id="SvgjsStop11433" stop-color="#fbb040" offset="1"></stop></linearGradient></defs><g id="SvgjsG11425" featureKey="LwVBM5-0" transform="matrix(1.4081727349387068,0,0,1.4081727349387068,-20.407237405361805,-20.405831349097422)" fill="url(#SvgjsLinearGradient11431)"><g xmlns="http://www.w3.org/2000/svg"><path fill="url(#SvgjsLinearGradient11431)" d="M50,14.491c-3.188,0-5.76,2.6-5.76,5.76c0,2.908,2.153,5.312,4.977,5.704v12.75   c-2.544,0.168-4.837,1.203-6.626,2.768l-5.731-5.731c1.706-2.237,1.538-5.48-0.531-7.549c-2.237-2.237-5.872-2.237-8.136,0   c-2.236,2.265-2.236,5.927,0,8.164c2.069,2.069,5.313,2.237,7.549,0.531l5.732,5.704c-1.566,1.789-2.6,4.082-2.768,6.626H25.956   c-0.392-2.824-2.796-4.977-5.704-4.977c-3.16,0-5.76,2.572-5.76,5.76s2.6,5.76,5.76,5.76c2.908,0,5.312-2.153,5.704-4.977h12.749   c0.168,2.544,1.202,4.837,2.768,6.626l-5.732,5.704c-2.236-1.706-5.479-1.538-7.549,0.531c-2.236,2.236-2.236,5.899,0,8.164   c2.265,2.236,5.899,2.236,8.136,0c2.069-2.069,2.237-5.313,0.531-7.577l5.731-5.704c1.79,1.566,4.082,2.572,6.626,2.74v12.75   c-2.824,0.392-4.977,2.823-4.977,5.731c0,3.159,2.572,5.76,5.76,5.76s5.76-2.601,5.76-5.76c0-2.908-2.153-5.34-4.977-5.731v-12.75   c2.544-0.168,4.837-1.174,6.626-2.74l5.703,5.704c-1.705,2.265-1.537,5.508,0.531,7.577c2.237,2.236,5.899,2.236,8.164,0   c2.237-2.265,2.237-5.928,0-8.164c-2.068-2.069-5.312-2.209-7.549-0.504l-5.731-5.731c1.565-1.789,2.572-4.082,2.74-6.626h12.749   c0.392,2.823,2.824,4.977,5.731,4.977c3.159,0,5.76-2.572,5.76-5.76s-2.601-5.76-5.76-5.76c-2.907,0-5.34,2.153-5.731,4.977H61.268   c-0.168-2.544-1.175-4.837-2.74-6.626l5.731-5.732c2.237,1.706,5.48,1.566,7.549-0.503c2.237-2.237,2.237-5.899,0-8.164   c-2.265-2.237-5.927-2.237-8.164,0c-2.068,2.069-2.236,5.313-0.531,7.549l-5.703,5.731c-1.789-1.565-4.082-2.6-6.626-2.768v-12.75   c2.823-0.392,4.977-2.796,4.977-5.704C55.76,17.091,53.188,14.491,50,14.491L50,14.491z M50,16.057c2.32,0,4.193,1.873,4.193,4.194   S52.32,24.445,50,24.445c-2.321,0-4.194-1.873-4.194-4.194S47.679,16.057,50,16.057L50,16.057z M32.274,28.08   c1.063,0,2.125,0.419,2.964,1.23c1.622,1.65,1.622,4.278,0,5.928c-1.65,1.622-4.278,1.622-5.927,0c-1.65-1.65-1.65-4.278,0-5.928   C30.121,28.499,31.211,28.08,32.274,28.08L32.274,28.08z M67.726,28.08c1.063,0,2.153,0.419,2.964,1.23   c1.649,1.65,1.622,4.278-0.028,5.928c-1.649,1.622-4.277,1.622-5.927,0c-1.622-1.65-1.622-4.278,0-5.928   C65.573,28.499,66.663,28.08,67.726,28.08L67.726,28.08z M50,40.27c5.396,0,9.729,4.333,9.729,9.73S55.396,59.729,50,59.729   c-5.396,0-9.729-4.333-9.729-9.729S44.604,40.27,50,40.27L50,40.27z M20.252,45.806c2.265,0,4.11,1.761,4.193,3.998   c0,0.028,0,0.056,0,0.084l0,0c0,0.112,0,0.224,0,0.308c-0.083,2.237-1.929,3.999-4.193,3.999c-2.321,0-4.194-1.874-4.194-4.194   C16.058,47.679,17.931,45.806,20.252,45.806L20.252,45.806z M79.748,45.806c2.32,0,4.194,1.873,4.194,4.194   c0,2.32-1.874,4.194-4.194,4.194S75.555,52.32,75.555,50C75.555,47.679,77.428,45.806,79.748,45.806L79.748,45.806z M32.274,63.532   c1.063,0,2.125,0.42,2.964,1.23c1.622,1.649,1.622,4.277,0,5.928c-1.65,1.649-4.278,1.649-5.927,0c-1.65-1.65-1.65-4.278,0-5.928   C30.121,63.952,31.211,63.532,32.274,63.532L32.274,63.532z M67.698,63.532c1.09,0,2.181,0.42,2.991,1.23   c1.649,1.649,1.649,4.277,0,5.928c-1.649,1.649-4.277,1.649-5.927,0c-1.622-1.65-1.65-4.278-0.028-5.928   C65.573,63.952,66.636,63.532,67.698,63.532L67.698,63.532z M50,75.555c2.32,0,4.193,1.874,4.193,4.194S52.32,83.943,50,83.943   c-2.321,0-4.194-1.874-4.194-4.194S47.679,75.555,50,75.555L50,75.555z"></path></g></g><g id="SvgjsG11426" featureKey="textGroupContainer" transform="matrix(1,0,0,1,355,16)" fill="#111111"><rect xmlns="http://www.w3.org/2000/svg" y="0" height="1" width="1" opacity="0"></rect><rect xmlns="http://www.w3.org/2000/svg" y="0" x="-235" width="3" height="68"></rect></g><g id="SvgjsG11427" featureKey="YhTCwJ-0" transform="matrix(1.802451100819864,0,0,1.802451100819864,135.65681408461958,22.83417689150481)" fill="#111111"><path d="M9.82 12.879999999999999 l0 7.12 l-1.76 0 l0 -6.44 c0 -1.82 -0.52 -2.74 -2.24 -2.74 c-1 0 -2.76 0.64 -2.76 3.48 l0 5.7 l-1.76 0 l0 -10.46 l1.66 0 l0 1.48 l0.04 0 c0.38 -0.56 1.36 -1.78 3.16 -1.78 c1.62 0 3.66 0.66 3.66 3.64 z M11.82 14.76 c0 -2.7 1.52 -5.52 4.86 -5.52 s4.86 2.82 4.86 5.52 s-1.52 5.52 -4.86 5.52 s-4.86 -2.82 -4.86 -5.52 z M13.64 14.76 c0 1.4 0.52 4 3.04 4 s3.04 -2.6 3.04 -4 s-0.52 -4 -3.04 -4 s-3.04 2.6 -3.04 4 z M32.22 5.640000000000001 l0 14.36 l-1.66 0 l0 -1.44 l-0.04 0 c-0.76 1.42 -1.96 1.74 -2.98 1.74 c-3.56 0 -4.6 -3.34 -4.6 -5.84 c0 -2.94 1.58 -5.22 4.36 -5.22 c1.9 0 2.7 1.18 3.12 1.78 l0.04 -0.14 l0 -5.24 l1.76 0 z M24.76 14.74 c0 2.3 0.9 4.04 2.82 4.04 c1.12 0 2.86 -0.74 2.86 -3.52 c0 -1.7 -0.28 -4.44 -2.82 -4.44 c-2.72 0 -2.86 2.58 -2.86 3.92 z M41.78 16.72 l1.76 0 c-0.06 0.5 -0.54 1.98 -1.86 2.86 c-0.48 0.32 -1.16 0.72 -2.84 0.72 c-2.94 0 -4.68 -2.22 -4.68 -5.24 c0 -3.24 1.56 -5.82 5.02 -5.82 c3.02 0 4.5 2.4 4.5 6.1 l-7.64 0 c0 2.18 1.02 3.44 3.04 3.44 c1.66 0 2.64 -1.28 2.7 -2.06 z M36.04 13.940000000000001 l5.82 0 c-0.1 -1.62 -0.78 -3.12 -2.92 -3.12 c-1.62 0 -2.9 1.5 -2.9 3.12 z M53.14000000000001 5.640000000000001 l0 14.36 l-1.76 0 l0 -14.36 l1.76 0 z M57.580000000000005 9.54 l0 10.46 l-1.76 0 l0 -10.46 l1.76 0 z M57.580000000000005 7.640000000000001 l-1.76 0 l0 -2 l1.76 0 l0 2 z M61.54 14.74 c0 2.3 0.9 4.04 2.82 4.04 c1.12 0 2.86 -0.74 2.86 -3.52 c0 -1.7 -0.28 -4.44 -2.82 -4.44 c-2.72 0 -2.86 2.58 -2.86 3.92 z M68.9 9.54 l0 9.6 c0 1.5 -0.02 5.26 -4.86 5.26 c-1.24 0 -3.66 -0.34 -4 -3.12 l1.76 0 c0.32 1.66 1.94 1.66 2.36 1.66 c3.04 0 2.98 -2.44 2.98 -3.68 l0 -0.44 l-0.04 0 l0 0.08 c-0.46 0.74 -1.38 1.4 -2.78 1.4 c-3.56 0 -4.6 -3.34 -4.6 -5.84 c0 -2.94 1.58 -5.22 4.36 -5.22 c1.9 0 2.7 1.18 3.12 1.78 l0.04 0 l0 -1.48 l1.66 0 z M79.86000000000001 12.879999999999999 l0 7.12 l-1.76 0 l0 -6.84 c0 -1.42 -0.4 -2.34 -2.08 -2.34 c-1.44 0 -2.92 0.84 -2.92 3.48 l0 5.7 l-1.76 0 l0 -14.36 l1.76 0 l0 5.3 l0.04 0 c0.5 -0.66 1.38 -1.7 3.06 -1.7 c1.62 0 3.66 0.66 3.66 3.64 z M86.30000000000001 11 l-1.68 0 l0 6.8 c0 0.82 0.7 0.82 1.06 0.82 l0.62 0 l0 1.38 c-0.64 0.06 -1.14 0.14 -1.32 0.14 c-1.74 0 -2.12 -0.98 -2.12 -2.24 l0 -6.9 l-1.42 0 l0 -1.46 l1.42 0 l0 -2.92 l1.76 0 l0 2.92 l1.68 0 l0 1.46 z M89.82000000000001 9.54 l0 10.46 l-1.76 0 l0 -10.46 l1.76 0 z M89.82000000000001 7.640000000000001 l-1.76 0 l0 -2 l1.76 0 l0 2 z M100.98000000000002 12.879999999999999 l0 7.12 l-1.76 0 l0 -6.44 c0 -1.82 -0.52 -2.74 -2.24 -2.74 c-1 0 -2.76 0.64 -2.76 3.48 l0 5.7 l-1.76 0 l0 -10.46 l1.66 0 l0 1.48 l0.04 0 c0.38 -0.56 1.36 -1.78 3.16 -1.78 c1.62 0 3.66 0.66 3.66 3.64 z M104.90000000000002 14.74 c0 2.3 0.9 4.04 2.82 4.04 c1.12 0 2.86 -0.74 2.86 -3.52 c0 -1.7 -0.28 -4.44 -2.82 -4.44 c-2.72 0 -2.86 2.58 -2.86 3.92 z M112.26000000000002 9.54 l0 9.6 c0 1.5 -0.02 5.26 -4.86 5.26 c-1.24 0 -3.66 -0.34 -4 -3.12 l1.76 0 c0.32 1.66 1.94 1.66 2.36 1.66 c3.04 0 2.98 -2.44 2.98 -3.68 l0 -0.44 l-0.04 0 l0 0.08 c-0.46 0.74 -1.38 1.4 -2.78 1.4 c-3.56 0 -4.6 -3.34 -4.6 -5.84 c0 -2.94 1.58 -5.22 4.36 -5.22 c1.9 0 2.7 1.18 3.12 1.78 l0.04 0 l0 -1.48 l1.66 0 z"></path></g>
			</g>
		</svg>
	