<?xml version="1.0" standalone="no"?>
<!DOCTYPE svg PUBLIC "-//W3C//DTD SVG 20010904//EN"
 "http://www.w3.org/TR/2001/REC-SVG-20010904/DTD/svg10.dtd">
<svg version="1.0" xmlns="http://www.w3.org/2000/svg"
 width="844.000000pt" height="844.000000pt" viewBox="0 0 844.000000 844.000000"
 preserveAspectRatio="xMidYMid meet">
<metadata>
Created by potrace 1.14, written by Peter Selinger 2001-2017
</metadata>
<g transform="translate(0.000000,844.000000) scale(0.100000,-0.100000)"
fill="#000000" stroke="none">
<path d="M4149 8425 c-2 -1 -22 -6 -44 -9 -108 -16 -209 -60 -303 -131 -255
-193 -339 -545 -200 -835 86 -180 258 -320 451 -366 37 -9 68 -20 68 -23 1 -3
2 -341 3 -749 1 -486 -2 -746 -9 -752 -5 -4 -36 -10 -68 -14 -31 -3 -67 -8
-80 -11 -12 -3 -33 -7 -47 -9 -42 -6 -200 -62 -265 -92 -84 -39 -179 -98 -254
-156 l-64 -50 -339 339 -339 339 36 59 c243 405 17 922 -448 1021 -99 21 -246
12 -345 -21 -192 -65 -330 -188 -412 -369 -73 -161 -78 -360 -13 -526 106
-267 350 -433 638 -433 140 -1 269 38 380 112 l30 20 325 -323 c179 -177 331
-330 338 -339 12 -13 6 -25 -36 -79 -126 -161 -217 -358 -258 -563 -2 -11 -7
-49 -10 -85 -4 -36 -7 -66 -8 -67 -2 -2 -1053 -5 -1383 -3 l-132 0 -11 58
c-17 83 -91 227 -151 295 -131 147 -299 225 -499 231 -389 12 -706 -307 -695
-696 6 -182 72 -335 200 -464 67 -68 97 -89 175 -127 52 -26 106 -48 120 -51
14 -3 47 -9 74 -14 27 -6 91 -8 143 -6 186 6 360 91 487 236 58 66 133 214
149 293 l12 60 740 -2 c407 -1 748 -2 758 -2 13 -1 17 -10 17 -38 0 -52 34
-206 65 -300 44 -131 124 -277 214 -391 35 -44 40 -56 30 -68 -33 -40 -662
-659 -667 -657 -4 1 -33 17 -64 36 -32 19 -97 47 -145 62 -109 35 -256 39
-368 11 -184 -48 -360 -189 -442 -356 -22 -47 -47 -110 -54 -140 -14 -60 -18
-244 -7 -300 58 -274 262 -479 533 -535 284 -59 576 70 724 319 29 48 73 156
79 191 36 226 7 377 -105 551 -13 21 3 38 323 355 185 184 341 333 346 331 6
-2 29 -18 52 -36 102 -83 265 -170 404 -215 81 -26 137 -38 277 -59 l49 -7 1
-749 c0 -411 -2 -751 -5 -755 -3 -4 -32 -13 -65 -20 -33 -7 -64 -17 -70 -21
-5 -4 -21 -11 -35 -15 -53 -15 -168 -97 -233 -165 -74 -78 -145 -209 -167
-309 -17 -74 -19 -203 -4 -282 51 -270 268 -491 536 -545 61 -13 213 -11 278
4 235 50 438 240 513 476 26 86 31 269 8 351 -44 157 -108 260 -226 363 -90
79 -238 147 -327 151 -17 1 -18 44 -18 761 l0 760 29 0 c16 0 66 7 112 16 232
42 417 127 620 284 l26 20 337 -335 337 -335 -28 -48 c-70 -115 -103 -223
-106 -346 -6 -292 138 -519 413 -653 119 -58 346 -68 482 -20 212 75 360 221
437 432 30 83 42 235 27 325 -51 284 -254 498 -536 561 -30 7 -95 12 -145 11
-133 -1 -250 -35 -358 -104 l-49 -31 -338 339 -339 339 69 95 c82 112 169 282
196 380 27 99 45 187 50 240 4 36 8 67 10 69 2 3 1436 5 1495 2 12 -1 20 -18
28 -58 26 -132 132 -297 248 -386 122 -93 239 -136 393 -143 329 -14 632 223
698 546 8 44 9 214 0 260 -59 313 -341 552 -653 554 -165 1 -272 -30 -400
-115 -149 -100 -263 -268 -290 -428 l-7 -41 -186 0 c-103 0 -428 0 -722 0
-294 0 -552 0 -572 0 -35 0 -38 2 -38 29 0 50 -29 196 -56 283 -37 120 -124
290 -198 388 l-65 85 339 339 338 339 49 -30 c116 -71 234 -105 368 -106 86 0
103 2 170 18 54 14 149 57 204 93 258 171 367 497 266 795 -76 222 -271 394
-505 441 -100 21 -253 15 -340 -13 -202 -65 -374 -228 -441 -417 -26 -74 -29
-85 -38 -162 -17 -148 15 -296 94 -427 20 -32 34 -59 33 -61 -19 -20 -641
-644 -655 -657 -19 -17 -21 -16 -59 14 -165 133 -397 242 -585 273 -19 3 -45
8 -59 11 -14 3 -42 6 -62 6 l-38 1 0 759 0 758 38 7 c233 42 436 222 518 459
25 71 28 94 28 205 0 92 -5 141 -18 185 -57 188 -188 346 -356 429 -52 25
-120 51 -150 57 -53 11 -214 21 -221 14z m132 -190 c120 -20 227 -76 302 -158
176 -193 171 -494 -12 -677 -100 -101 -218 -150 -356 -150 -210 0 -386 124
-466 327 -32 81 -33 251 -1 335 23 65 86 161 127 196 82 71 192 120 289 129
34 3 63 7 65 9 2 2 7 2 11 -1 4 -2 22 -7 41 -10z m-2010 -1449 c128 -44 232
-134 285 -246 30 -63 54 -164 54 -230 0 -60 -35 -184 -67 -240 -107 -183 -332
-280 -537 -233 -229 52 -388 247 -388 473 1 77 1 83 22 160 44 165 227 318
405 337 28 3 51 6 52 8 10 8 119 -11 174 -29z m4161 14 c127 -25 262 -129 327
-249 79 -148 73 -338 -14 -486 -50 -86 -160 -175 -260 -211 -311 -113 -638
104 -661 438 -11 158 68 327 201 428 48 37 178 85 250 92 38 4 97 0 157 -12z
m-2012 -1445 c441 -85 802 -418 910 -839 30 -117 32 -134 35 -286 2 -111 -1
-166 -15 -235 -86 -420 -383 -753 -788 -880 -185 -58 -424 -69 -602 -26 -216
51 -404 155 -556 307 -230 230 -346 523 -338 856 3 130 4 138 35 260 107 423
460 750 904 838 91 18 332 21 415 5z m-3627 -655 c372 -83 516 -541 259 -821
-118 -129 -310 -187 -485 -147 -126 28 -267 141 -324 259 -135 280 -6 594 285
692 80 27 190 34 265 17z m7063 0 c379 -84 517 -564 240 -835 -108 -106 -233
-152 -387 -142 -253 16 -446 218 -455 474 -5 141 41 265 136 363 38 39 135
105 162 110 4 1 28 10 54 19 56 22 179 27 250 11z m-5651 -2101 c80 -15 178
-64 241 -122 279 -255 178 -717 -182 -837 -242 -81 -508 44 -611 285 -80 187
-29 408 126 553 56 52 174 113 233 119 24 3 45 7 47 9 8 8 88 4 146 -7z m4225
-4 c213 -48 376 -241 385 -457 7 -146 -43 -275 -147 -377 -70 -70 -133 -106
-230 -130 -298 -76 -593 143 -612 453 -9 143 40 271 144 377 122 124 291 173
460 134z m-2066 -1436 c103 -27 226 -125 280 -222 161 -290 20 -642 -292 -728
-252 -70 -508 60 -602 306 -26 68 -36 215 -19 281 36 142 124 257 247 322 76
41 109 51 187 59 33 3 61 7 63 8 4 3 84 -12 136 -26z"/>
</g>
</svg>
